<?xml version="1.0" encoding="utf-8"?>
<!-- Generator: Adobe Illustrator 21.0.0, SVG Export Plug-In . SVG Version: 6.00 Build 0)  -->
<svg version="1.1" id="Layer_4" xmlns="http://www.w3.org/2000/svg" xmlns:xlink="http://www.w3.org/1999/xlink" x="0px" y="0px"
	 viewBox="0 0 134.1 32" style="enable-background:new 0 0 134.1 32;" xml:space="preserve">
<style type="text/css">
	.st0{fill:#673AB7;}
</style>
<g id="XMLID_261_">
	<path id="XMLID_259_" class="st0" d="M5.2,0H0l14.8,25.6l2.6-4.5L5.2,0z"/>
	<path id="XMLID_258_" class="st0" d="M19.3,14.6L10.9,0H5.8l11.9,20.6l1.7-2.9c0.3-0.5,0.4-1,0.4-1.6C19.8,15.6,19.6,15,19.3,14.6z
		"/>
	<path id="XMLID_257_" class="st0" d="M9,16.7L0.2,32h5.1l6.3-10.9L9,16.7z"/>
	<path id="XMLID_256_" class="st0" d="M11.9,21.6L5.9,32h5.2l3.4-5.9L11.9,21.6z"/>
</g>
<g>
	<path class="st0" d="M36.8,8.8c0,1.7-0.5,3.1-1.6,4.2c-1.2,1.2-2.7,1.8-4.6,1.8c-1.8,0-3.3-0.6-4.6-1.9c-1.3-1.3-1.9-2.8-1.9-4.6
		c0-1.8,0.6-3.4,1.9-4.6s2.8-1.9,4.6-1.9c0.9,0,1.8,0.2,2.6,0.5c0.8,0.3,1.5,0.8,2,1.4l-1.1,1.1c-0.8-1-2-1.5-3.4-1.5
		c-1.3,0-2.5,0.5-3.4,1.4s-1.4,2.1-1.4,3.6s0.5,2.7,1.4,3.6c1,0.9,2.1,1.4,3.4,1.4c1.4,0,2.6-0.5,3.5-1.4c0.6-0.6,1-1.4,1-2.5h-4.5
		V7.8h6.1C36.8,8.1,36.8,8.5,36.8,8.8z"/>
	<path class="st0" d="M38.8,14.5V2h3.8c1.9,0,3.5,0.6,4.6,1.7c1.2,1.2,1.7,2.7,1.7,4.5c0,1.8-0.6,3.4-1.7,4.5
		c-1.2,1.2-2.7,1.7-4.6,1.7H38.8z M40.4,13h2.2c1.4,0,2.6-0.4,3.4-1.2c0.8-0.8,1.3-2,1.3-3.5c0-1.5-0.4-2.6-1.3-3.5
		c-0.8-0.8-2-1.2-3.4-1.2h-2.2V13z"/>
	<path class="st0" d="M62.8,8.8c0,1.7-0.5,3.1-1.6,4.2c-1.2,1.2-2.7,1.8-4.6,1.8c-1.8,0-3.3-0.6-4.6-1.9c-1.3-1.3-1.9-2.8-1.9-4.6
		c0-1.8,0.6-3.4,1.9-4.6s2.8-1.9,4.6-1.9c0.9,0,1.8,0.2,2.6,0.5c0.8,0.3,1.5,0.8,2,1.4l-1.1,1.1c-0.8-1-2-1.5-3.4-1.5
		c-1.3,0-2.5,0.5-3.4,1.4s-1.4,2.1-1.4,3.6s0.5,2.7,1.4,3.6c1,0.9,2.1,1.4,3.4,1.4c1.4,0,2.6-0.5,3.5-1.4c0.6-0.6,1-1.4,1-2.5h-4.5
		V7.8h6.1C62.8,8.1,62.8,8.5,62.8,8.8z"/>
	<path class="st0" d="M68.6,14.5V2h3.8c1.9,0,3.5,0.6,4.6,1.7s1.7,2.7,1.7,4.5c0,1.8-0.6,3.4-1.7,4.5c-1.2,1.2-2.7,1.7-4.6,1.7H68.6
		z M70.2,13h2.2c1.4,0,2.6-0.4,3.4-1.2c0.8-0.8,1.3-2,1.3-3.5c0-1.5-0.4-2.6-1.3-3.5c-0.8-0.8-2-1.2-3.4-1.2h-2.2V13z"/>
	<path class="st0" d="M84,14.8c-1.3,0-2.3-0.4-3.1-1.3c-0.8-0.9-1.2-1.9-1.2-3.3C79.6,9,80,7.9,80.8,7s1.8-1.3,3-1.3
		c1.3,0,2.3,0.4,3,1.2c0.8,0.8,1.1,1.9,1.1,3.3l0,0.3h-6.8c0,0.9,0.3,1.5,0.9,2s1.1,0.8,1.9,0.8c1.2,0,1.9-0.5,2.3-1.5l1.4,0.6
		c-0.3,0.7-0.7,1.2-1.4,1.7S84.9,14.8,84,14.8z M86.3,9.2c0-0.5-0.3-1-0.7-1.4s-1-0.7-1.8-0.7c-0.6,0-1.1,0.2-1.5,0.6
		c-0.4,0.4-0.7,0.9-0.9,1.5H86.3z"/>
	<path class="st0" d="M91.9,14.5l-3.5-8.5h1.7l2.5,6.6h0l2.5-6.6H97l-3.5,8.5H91.9z"/>
	<path class="st0" d="M99.9,14.5h-1.6V2h7.3v1.5h-5.7v4.1h5.1v1.5h-5.1V14.5z"/>
	<path class="st0" d="M110.5,14.8c-1.3,0-2.3-0.4-3.1-1.3c-0.8-0.9-1.2-1.9-1.2-3.3c0-1.2,0.4-2.3,1.2-3.2s1.8-1.3,3-1.3
		c1.3,0,2.3,0.4,3,1.2c0.8,0.8,1.1,1.9,1.1,3.3l0,0.3h-6.8c0,0.9,0.3,1.5,0.9,2s1.1,0.8,1.9,0.8c1.2,0,1.9-0.5,2.3-1.5l1.4,0.6
		c-0.3,0.7-0.7,1.2-1.4,1.7S111.4,14.8,110.5,14.8z M112.8,9.2c0-0.5-0.3-1-0.7-1.4s-1-0.7-1.8-0.7c-0.6,0-1.1,0.2-1.5,0.6
		c-0.4,0.4-0.7,0.9-0.9,1.5H112.8z"/>
	<path class="st0" d="M119.2,14.8c-1,0-1.7-0.2-2.4-0.7c-0.6-0.5-1.1-1-1.4-1.7l1.4-0.6c0.5,1.1,1.2,1.6,2.3,1.6
		c0.5,0,0.9-0.1,1.2-0.3c0.3-0.2,0.5-0.5,0.5-0.9c0-0.6-0.4-0.9-1.2-1.1l-1.7-0.4c-0.5-0.1-1.1-0.4-1.6-0.8s-0.7-0.9-0.7-1.6
		c0-0.8,0.3-1.4,1-1.8c0.7-0.5,1.5-0.7,2.4-0.7c0.8,0,1.4,0.2,2,0.5c0.6,0.3,1,0.8,1.3,1.5L121,8.2c-0.3-0.8-1-1.1-2-1.1
		c-0.5,0-0.9,0.1-1.2,0.3c-0.3,0.2-0.5,0.5-0.5,0.8c0,0.5,0.4,0.8,1.1,1l1.7,0.4c0.8,0.2,1.4,0.5,1.8,1s0.6,1,0.6,1.5
		c0,0.8-0.3,1.4-0.9,1.9C121,14.5,120.2,14.8,119.2,14.8z"/>
	<path class="st0" d="M127.6,14.6c-0.9,0-1.6-0.2-2-0.7s-0.7-1.2-0.7-2V7.4h-1.5V5.9h1.5V3.3h1.6v2.6h2.1v1.5h-2.1v4.4
		c0,0.9,0.4,1.4,1.2,1.4c0.3,0,0.5,0,0.7-0.1l0.6,1.4C128.5,14.6,128.1,14.6,127.6,14.6z"/>
	<path class="st0" d="M28.3,30.6c-0.9,0-1.8-0.3-2.7-0.9c-0.9-0.6-1.4-1.4-1.7-2.5l1.5-0.6c0.2,0.7,0.5,1.3,1.1,1.7
		c0.5,0.5,1.1,0.7,1.8,0.7c0.7,0,1.3-0.2,1.8-0.5c0.5-0.4,0.7-0.9,0.7-1.5c0-0.7-0.2-1.2-0.7-1.6c-0.5-0.4-1.3-0.7-2.3-1.1
		c-1.1-0.3-1.9-0.8-2.5-1.4c-0.6-0.6-0.9-1.3-0.9-2.1c0-0.9,0.4-1.7,1.1-2.3c0.7-0.7,1.6-1,2.8-1c1.1,0,1.9,0.3,2.6,0.8
		c0.7,0.5,1.1,1.1,1.3,1.7l-1.5,0.6c-0.1-0.4-0.4-0.8-0.8-1.1c-0.4-0.3-0.9-0.5-1.6-0.5c-0.6,0-1.1,0.2-1.6,0.5
		C26.2,20,26,20.4,26,20.9c0,0.5,0.2,0.9,0.6,1.2c0.4,0.3,1,0.6,1.8,0.9c0.6,0.2,1.1,0.4,1.5,0.6c0.4,0.2,0.8,0.4,1.3,0.7
		c0.4,0.3,0.7,0.7,1,1.2c0.2,0.5,0.3,1,0.3,1.6c0,0.6-0.1,1.1-0.4,1.6c-0.3,0.5-0.6,0.9-1,1.1c-0.4,0.3-0.9,0.5-1.3,0.6
		C29.3,30.5,28.8,30.6,28.3,30.6z"/>
	<path class="st0" d="M35.7,30.3h-1.6v-8.5h1.5v1.4h0.1c0.2-0.5,0.5-0.8,1-1.2c0.5-0.3,1-0.5,1.5-0.5c0.5,0,0.9,0.1,1.2,0.2
		l-0.6,1.5c-0.2-0.1-0.5-0.1-0.9-0.1c-0.6,0-1.1,0.2-1.5,0.7c-0.4,0.5-0.7,1.1-0.7,1.8V30.3z"/>
	<path class="st0" d="M42.2,19.6C42,19.9,41.7,20,41.4,20c-0.3,0-0.6-0.1-0.8-0.3c-0.2-0.2-0.3-0.5-0.3-0.8s0.1-0.6,0.3-0.8
		c0.2-0.2,0.5-0.3,0.8-0.3c0.3,0,0.6,0.1,0.8,0.3c0.2,0.2,0.3,0.5,0.3,0.8S42.4,19.4,42.2,19.6z M42.2,30.3h-1.6v-8.5h1.6V30.3z"/>
	<path class="st0" d="M48.4,30.3V17.8H50v11h5.4v1.5H48.4z"/>
	<path class="st0" d="M59.5,30.6c-0.9,0-1.7-0.3-2.3-0.8c-0.6-0.5-0.9-1.2-0.9-2.1c0-0.9,0.4-1.7,1.1-2.2s1.6-0.8,2.7-0.8
		c0.9,0,1.7,0.2,2.3,0.5V25c0-0.6-0.2-1.1-0.6-1.5s-1-0.6-1.6-0.6c-0.5,0-0.9,0.1-1.3,0.3s-0.6,0.5-0.8,0.9l-1.5-0.6
		c0.2-0.5,0.6-1,1.2-1.4c0.6-0.4,1.3-0.7,2.3-0.7c1.1,0,2,0.3,2.7,1c0.7,0.6,1.1,1.5,1.1,2.7v5.2h-1.5v-1.2h-0.1
		C61.7,30.1,60.8,30.6,59.5,30.6z M59.8,29.1c0.7,0,1.3-0.2,1.8-0.7s0.8-1.1,0.8-1.8c-0.5-0.4-1.1-0.6-2-0.6c-0.8,0-1.4,0.2-1.8,0.5
		c-0.4,0.3-0.6,0.7-0.6,1.2c0,0.4,0.2,0.8,0.5,1C58.9,29,59.3,29.1,59.8,29.1z"/>
	<path class="st0" d="M67.3,21.8V23h0.1c0.2-0.4,0.6-0.8,1.1-1c0.5-0.3,1-0.4,1.6-0.4c1.1,0,1.9,0.3,2.4,1s0.8,1.5,0.8,2.6v5.2h-1.6
		v-5c0-1.6-0.7-2.4-2.1-2.4c-0.7,0-1.2,0.3-1.6,0.8c-0.4,0.5-0.6,1.1-0.6,1.8v4.7h-1.6v-8.5H67.3z"/>
	<path class="st0" d="M76.8,17.8v7.7l3.7-3.8h2.1v0.1l-3.3,3.3l3.5,5.1v0.1h-1.9l-2.7-4l-1.3,1.3v2.7h-1.6V17.8H76.8z"/>
	<path class="st0" d="M86.2,30.6c-0.9,0-1.7-0.3-2.3-0.8c-0.6-0.5-0.9-1.2-0.9-2.1c0-0.9,0.4-1.7,1.1-2.2c0.7-0.5,1.6-0.8,2.7-0.8
		c0.9,0,1.7,0.2,2.3,0.5V25c0-0.6-0.2-1.1-0.6-1.5c-0.4-0.4-1-0.6-1.6-0.6c-0.5,0-0.9,0.1-1.3,0.3c-0.4,0.2-0.6,0.5-0.8,0.9
		l-1.5-0.6c0.2-0.5,0.6-1,1.2-1.4c0.6-0.4,1.3-0.7,2.3-0.7c1.1,0,2,0.3,2.7,1c0.7,0.6,1.1,1.5,1.1,2.7v5.2h-1.5v-1.2H89
		C88.4,30.1,87.4,30.6,86.2,30.6z M86.5,29.1c0.7,0,1.3-0.2,1.8-0.7s0.8-1.1,0.8-1.8c-0.5-0.4-1.1-0.6-2-0.6c-0.8,0-1.4,0.2-1.8,0.5
		c-0.4,0.3-0.6,0.7-0.6,1.2c0,0.4,0.2,0.8,0.5,1S86,29.1,86.5,29.1z"/>
	<path class="st0" d="M103.6,30.3H96v-1.6c2.3-2.3,3.7-3.8,4.4-4.5c0.6-0.6,1-1.1,1.2-1.5c0.2-0.3,0.3-0.7,0.3-1.2
		c0-0.5-0.2-0.9-0.6-1.3c-0.4-0.4-0.9-0.6-1.6-0.6c-0.6,0-1.1,0.2-1.5,0.5c-0.4,0.4-0.6,0.7-0.7,1.1L96,20.7
		c0.2-0.6,0.6-1.2,1.2-1.8s1.4-0.8,2.4-0.8c1.1,0,2,0.3,2.7,1c0.7,0.7,1.1,1.5,1.1,2.4c0,1.2-0.6,2.4-1.9,3.7l-3.5,3.5h5.5V30.3z"/>
	<path class="st0" d="M113.4,28.8c-0.9,1.2-2,1.8-3.5,1.8s-2.6-0.6-3.5-1.8s-1.3-2.7-1.3-4.4c0-1.8,0.4-3.3,1.3-4.5s2-1.8,3.5-1.8
		s2.6,0.6,3.5,1.8c0.9,1.2,1.3,2.7,1.3,4.5C114.7,26.1,114.3,27.6,113.4,28.8z M109.9,29.1c1,0,1.7-0.4,2.3-1.3
		c0.6-0.9,0.9-2,0.9-3.4c0-1.4-0.3-2.5-0.9-3.4c-0.6-0.9-1.3-1.3-2.3-1.3c-1,0-1.7,0.4-2.3,1.3c-0.6,0.9-0.9,2-0.9,3.4
		c0,1.3,0.3,2.5,0.9,3.4C108.2,28.6,109,29.1,109.9,29.1z"/>
	<path class="st0" d="M120.5,30.3h-1.6v-9.9l-2.3,1L116,20l3.5-1.6h1V30.3z"/>
	<path class="st0" d="M129.6,29.6c-0.8,0.7-1.7,1-2.9,1c-1.1,0-2.1-0.3-2.9-1s-1.2-1.5-1.2-2.5c0-0.7,0.2-1.2,0.5-1.8
		c0.4-0.5,0.8-0.9,1.4-1.2V24c-0.5-0.3-0.8-0.7-1.1-1.1s-0.4-0.9-0.4-1.4c0-1,0.3-1.8,1-2.4c0.7-0.6,1.6-1,2.6-1
		c1.1,0,1.9,0.3,2.6,1c0.7,0.6,1,1.5,1,2.4c0,0.5-0.1,1-0.4,1.4s-0.7,0.8-1.1,1.1v0.1c0.6,0.3,1.1,0.7,1.4,1.2
		c0.4,0.5,0.5,1.1,0.5,1.8C130.8,28,130.4,28.9,129.6,29.6z M125,28.5c0.5,0.4,1,0.6,1.7,0.6c0.7,0,1.2-0.2,1.7-0.6
		c0.5-0.4,0.7-0.9,0.7-1.5c0-0.6-0.2-1.1-0.7-1.5c-0.5-0.4-1-0.6-1.7-0.6c-0.7,0-1.2,0.2-1.7,0.6c-0.5,0.4-0.7,0.9-0.7,1.5
		C124.3,27.6,124.6,28.1,125,28.5z M125.3,22.8c0.4,0.3,0.9,0.5,1.4,0.5c0.6,0,1.1-0.2,1.4-0.5c0.4-0.3,0.6-0.8,0.6-1.4
		s-0.2-1-0.6-1.3c-0.4-0.3-0.9-0.5-1.4-0.5c-0.6,0-1.1,0.2-1.4,0.5c-0.4,0.3-0.6,0.8-0.6,1.3S124.9,22.5,125.3,22.8z"/>
</g>
</svg>
