<?xml version="1.0" encoding="utf-8"?>
<!-- Generator: Adobe Illustrator 21.0.0, SVG Export Plug-In . SVG Version: 6.00 Build 0)  -->
<svg version="1.1" id="Layer_4" xmlns="http://www.w3.org/2000/svg" xmlns:xlink="http://www.w3.org/1999/xlink" x="0px" y="0px"
	 viewBox="0 0 1089.3 200" style="enable-background:new 0 0 1089.3 200;" xml:space="preserve">
<style type="text/css">
	.st0{fill:#757575;}
</style>
<g id="XMLID_261_">
	<path id="XMLID_259_" class="st0" d="M30.5,10.4h-29l82.7,143.4l14.5-25.1L30.5,10.4z"/>
	<path id="XMLID_258_" class="st0" d="M110,91.9L62.8,10.4H33.9l66.6,115.4l9.4-16.3c1.5-2.5,2.5-5.6,2.5-8.8
		C112.4,97.5,111.5,94.5,110,91.9L110,91.9z"/>
	<path id="XMLID_257_" class="st0" d="M52.1,103.7l-49.7,86h29l35.2-60.9L52.1,103.7z"/>
	<path id="XMLID_256_" class="st0" d="M68.2,131.6l-33.4,58h28.9l19.1-33L68.2,131.6L68.2,131.6z"/>
</g>
<g>
	<path class="st0" d="M248.7,102.1c0,14.7-4.4,26.5-13.1,35.2c-9.9,10.4-22.8,15.6-38.7,15.6c-15.2,0-28.2-5.3-38.8-15.8
		c-10.7-10.6-16-23.6-16-39.2c0-15.6,5.3-28.7,16-39.2c10.7-10.6,23.6-15.8,38.8-15.8c7.6,0,14.8,1.5,21.6,4.4
		c6.9,2.9,12.4,6.9,16.5,11.8l-9.3,9.3c-7-8.3-16.6-12.5-28.9-12.5c-11.1,0-20.7,3.9-28.8,11.7c-8.1,7.8-12.2,17.9-12.2,30.4
		c0,12.5,4.1,22.6,12.2,30.4c8.1,7.8,17.7,11.7,28.8,11.7c11.8,0,21.6-3.9,29.5-11.8c5.1-5.1,8-12.2,8.8-21.4h-38.3V94.2h51.1
		C248.4,96.9,248.7,99.6,248.7,102.1z"/>
	<path class="st0" d="M265.2,150.6V45.1h32.3c16.2,0,29.2,4.9,38.9,14.7c9.7,9.8,14.6,22.5,14.6,38.1c0,15.6-4.9,28.3-14.6,38.1
		c-9.7,9.8-22.7,14.7-38.9,14.7H265.2z M278.7,137.6h18.7c12.2,0,21.8-3.5,28.9-10.5c7.1-7,10.7-16.7,10.7-29.3
		c0-12.5-3.6-22.2-10.7-29.2c-7.1-7-16.8-10.5-28.9-10.5h-18.7V137.6z"/>
	<path class="st0" d="M468.4,102.1c0,14.7-4.4,26.5-13.1,35.2c-9.9,10.4-22.8,15.6-38.7,15.6c-15.2,0-28.2-5.3-38.8-15.8
		c-10.7-10.6-16-23.6-16-39.2c0-15.6,5.3-28.7,16-39.2c10.7-10.6,23.6-15.8,38.8-15.8c7.6,0,14.8,1.5,21.6,4.4
		c6.9,2.9,12.4,6.9,16.5,11.8l-9.3,9.3c-7-8.3-16.6-12.5-28.9-12.5c-11.1,0-20.7,3.9-28.8,11.7c-8.1,7.8-12.2,17.9-12.2,30.4
		c0,12.5,4.1,22.6,12.2,30.4c8.1,7.8,17.7,11.7,28.8,11.7c11.8,0,21.6-3.9,29.5-11.8c5.1-5.1,8-12.2,8.8-21.4h-38.3V94.2h51.1
		C468.2,96.9,468.4,99.6,468.4,102.1z"/>
	<path class="st0" d="M542.6,152.9c-7.7,0-15.1-2.5-22.5-7.5c-7.3-5-12.1-12-14.4-21.1l12.4-5c1.5,5.8,4.5,10.7,9.1,14.7
		c4.6,4,9.7,6,15.4,6c5.9,0,10.9-1.5,15.1-4.6c4.2-3.1,6.3-7.3,6.3-12.6c0-5.9-2.1-10.4-6.3-13.6c-4.2-3.2-10.8-6.2-19.8-8.9
		c-9.3-2.9-16.4-6.7-21.2-11.4c-4.8-4.7-7.2-10.6-7.2-17.9c0-7.6,3-14.1,9-19.7c6-5.6,13.8-8.4,23.4-8.4c8.9,0,16.2,2.2,21.8,6.7
		c5.6,4.5,9.2,9.4,10.9,14.7l-12.4,5.2c-0.9-3.3-3.1-6.4-6.6-9.3c-3.5-2.8-8-4.3-13.5-4.3c-5.2,0-9.6,1.4-13.3,4.3
		c-3.7,2.9-5.5,6.5-5.5,10.8c0,3.9,1.7,7.2,5.1,9.9c3.4,2.7,8.4,5.1,14.9,7.3c5.2,1.7,9.5,3.3,13,4.9c3.5,1.6,7,3.7,10.6,6.3
		c3.6,2.6,6.3,5.8,8.1,9.7c1.8,3.9,2.7,8.4,2.7,13.5c0,5.1-1.1,9.7-3.2,13.7c-2.1,4-4.9,7.2-8.4,9.6c-3.5,2.4-7.2,4.1-11.3,5.4
		C551,152.3,546.9,152.9,542.6,152.9z"/>
	<path class="st0" d="M605.5,150.6H592V78.4h13v11.8h0.6c1.4-3.9,4.2-7.2,8.5-9.7c4.3-2.6,8.4-3.8,12.4-3.8c4,0,7.4,0.6,10.2,1.8
		l-5.2,12.7c-1.8-0.7-4.2-1-7.2-1c-4.9,0-9.3,1.9-13,5.8c-3.8,3.9-5.7,9-5.7,15.2V150.6z"/>
	<path class="st0" d="M660.2,60.3c-1.9,1.9-4.1,2.8-6.8,2.8c-2.7,0-4.9-0.9-6.8-2.8c-1.9-1.9-2.8-4.1-2.8-6.8c0-2.7,0.9-4.9,2.8-6.8
		c1.9-1.9,4.1-2.8,6.8-2.8c2.7,0,4.9,0.9,6.8,2.8c1.9,1.9,2.8,4.1,2.8,6.8C663,56.2,662,58.4,660.2,60.3z M660.2,150.6h-13.5V78.4
		h13.5V150.6z"/>
	<path class="st0" d="M712.6,150.6V45.1h13.5v92.5h45.7v13H712.6z"/>
	<path class="st0" d="M806.4,152.9c-7.7,0-14.1-2.2-19.2-6.6c-5.2-4.4-7.7-10.3-7.7-17.5c0-7.9,3-14,9.1-18.5
		c6.1-4.5,13.6-6.7,22.5-6.7c8,0,14.5,1.5,19.6,4.4v-2.1c0-5.3-1.8-9.5-5.4-12.7c-3.6-3.2-8.1-4.8-13.4-4.8c-3.9,0-7.5,0.9-10.7,2.8
		c-3.2,1.9-5.4,4.4-6.6,7.7l-12.4-5.3c1.7-4.3,5-8.3,9.9-12c4.9-3.7,11.4-5.5,19.4-5.5c9.2,0,16.9,2.7,23,8.1
		c6.1,5.4,9.1,13,9.1,22.8v43.6h-13v-10h-0.6C824.7,148.8,816.8,152.9,806.4,152.9z M808.6,140.6c5.6,0,10.7-2.1,15.2-6.3
		c4.6-4.2,6.8-9.1,6.8-14.8c-3.8-3.1-9.6-4.7-17.2-4.7c-6.6,0-11.5,1.4-14.9,4.3c-3.3,2.8-5,6.2-5,10c0,3.5,1.5,6.3,4.6,8.4
		C801.2,139.5,804.7,140.6,808.6,140.6z"/>
	<path class="st0" d="M872,78.4v10h0.6c2-3.4,5.1-6.4,9.3-8.8c4.2-2.4,8.7-3.6,13.5-3.6c8.9,0,15.8,2.8,20.5,8.2
		c4.7,5.5,7.1,12.9,7.1,22.1v44.2h-13.5v-42.1c0-13.4-5.9-20-17.8-20c-5.6,0-10.2,2.2-13.7,6.7c-3.5,4.5-5.3,9.6-5.3,15.5v39.9H859
		V78.4H872z"/>
	<path class="st0" d="M952.4,45.1v64.9l31.2-31.7h17.4V79l-28.1,28.1l29.5,42.9v0.6h-16.3l-22.7-34l-10.9,10.9v23.1h-13.5V45.1
		H952.4z"/>
	<path class="st0" d="M1031.3,152.9c-7.7,0-14.1-2.2-19.2-6.6c-5.2-4.4-7.7-10.3-7.7-17.5c0-7.9,3-14,9.1-18.5
		c6.1-4.5,13.6-6.7,22.5-6.7c8,0,14.5,1.5,19.6,4.4v-2.1c0-5.3-1.8-9.5-5.4-12.7c-3.6-3.2-8.1-4.8-13.4-4.8c-3.9,0-7.5,0.9-10.7,2.8
		c-3.2,1.9-5.4,4.4-6.6,7.7l-12.4-5.3c1.7-4.3,5-8.3,9.9-12c4.9-3.7,11.4-5.5,19.4-5.5c9.2,0,16.9,2.7,23,8.1
		c6.1,5.4,9.1,13,9.1,22.8v43.6h-13v-10h-0.6C1049.6,148.8,1041.7,152.9,1031.3,152.9z M1033.5,140.6c5.6,0,10.7-2.1,15.2-6.3
		c4.6-4.2,6.8-9.1,6.8-14.8c-3.8-3.1-9.6-4.7-17.2-4.7c-6.6,0-11.5,1.4-14.9,4.3c-3.3,2.8-5,6.2-5,10c0,3.5,1.5,6.3,4.6,8.4
		C1026.1,139.5,1029.6,140.6,1033.5,140.6z"/>
</g>
</svg>
